<svg width="611" height="392" viewBox="0 0 611 392" fill="none" xmlns="http://www.w3.org/2000/svg">
<g clip-path="url(#clip0_18956_74690)">
<path opacity="0.87" d="M458.473 325.989C457.225 325.982 455.997 325.984 454.77 325.703C446.783 323.877 441.02 316.74 441.175 308.507C441.213 306.477 441.968 304.192 442.526 302.167C443.031 300.335 445.178 297.97 446.442 296.534C449.056 294.124 453.924 291.632 457.602 291.811C458.568 291.858 461.206 292.002 461.94 291.566C462.462 290.994 463.2 287.128 463.637 286.117C465.673 281.404 469.462 276.519 473.896 273.834C477.844 271.693 481.672 270.268 486.156 270.022C492.972 269.649 499.7 271.384 504.738 276.151C508.16 279.391 511.02 282.781 512.755 287.208C513.042 287.942 513.818 290.708 514.338 291.476C516.605 292.126 519.059 291.5 521.45 292.001C528.745 293.528 534.479 299.76 534.822 307.294C535.048 312.258 534.411 316.261 530.923 320.027C527.478 323.764 522.663 325.941 517.582 326.058C517.376 326.066 517.17 326.068 516.964 326.063C513.107 326.278 507.853 326.076 503.912 326.086C498.238 326.101 492.199 326.22 486.553 326.065C486.144 325.748 461.29 325.886 458.613 325.84L458.473 325.989Z" fill="#C8EDFF"/>
<rect x="378.117" y="122.067" width="14.3835" height="82.3004" fill="#E1E2E4"/>
<rect x="300.848" y="128.443" width="14.3835" height="75.9251" fill="#E1E2E4"/>
<path d="M312.744 199.522L347.027 199.082C355.995 198.947 365.328 198.665 374.256 199.015L376.921 199.05C381.032 199.306 386.632 199.57 390.753 199.566L414.236 200.335C419.075 200.482 428.144 200.362 432.411 201.637C435.845 202.698 438.928 204.662 441.337 207.326C448.056 214.619 447.139 222.597 447.131 231.752L447.117 252.542L447.112 320.299L447.104 427.165L447.12 461.667C447.125 467.825 447.233 474.174 447.077 480.195C446.858 488.611 442.103 495.788 434.388 499.098C433.477 499.486 432.319 499.805 431.518 500.32C441.121 511.255 433.892 526.252 419.113 524.763C407.504 523.593 403.309 512.07 408.453 502.486C406.751 502.052 385.82 503.905 382.472 504.226C381.17 504.382 378.85 504.404 377.455 504.452C370.086 505.426 366.526 504.423 359.89 504.582C356.753 504.204 351.849 504.15 348.529 504.007L327.672 503.063C309.698 502.203 291.721 501.175 273.746 500.352C272.892 500.315 272.334 500.226 271.571 500.611C277.191 510.813 271.866 522.336 259.41 522.624C256.345 522.694 252.841 522.233 250.28 520.342C242.862 514.861 242.369 506.249 247.453 498.958C235.64 495.529 230.02 487.758 229.945 475.485L229.954 299.982L229.938 246.519L229.929 229.838C229.928 226.89 229.814 222.696 230.159 219.854C230.778 214.84 233.033 210.168 236.574 206.563C244.715 198.393 254.616 200.155 265.247 200.001L298.836 199.564L312.744 199.522Z" fill="#B4E4FC"/>
<path d="M376.927 199.05C381.037 199.306 386.637 199.57 390.759 199.566L414.242 200.335C419.081 200.481 428.149 200.361 432.417 201.637C435.85 202.698 438.933 204.662 441.342 207.325C448.061 214.619 447.144 222.597 447.136 231.752L447.123 252.542L447.117 320.299L447.109 427.165L447.125 461.667C447.131 467.825 447.239 474.174 447.082 480.195C446.864 488.611 442.108 495.788 434.394 499.098C433.482 499.486 432.325 499.805 431.524 500.32C441.126 511.255 433.897 526.252 419.119 524.763C407.509 523.592 403.315 512.069 408.459 502.486C406.757 502.051 385.825 503.905 382.478 504.225C381.175 504.382 378.855 504.404 377.461 504.452C379.074 503.578 380.584 502.987 382.235 502C395.204 494.229 393.184 480.821 393.151 467.782L393.138 442.079L393.13 357.099L393.14 267.054L393.138 237.229C393.135 230.059 393.885 220.415 391.557 213.649C389.777 208.475 384.63 202.972 379.654 200.797C377.946 200.051 376.061 199.896 374.262 199.015L376.927 199.05Z" fill="#71D1FC"/>
<path d="M301.391 131.718C294.232 129.715 294.466 121.767 294.639 115.853C294.707 113.531 294.572 110.995 294.843 108.702C295.124 106.123 296.442 103.769 298.494 102.181C300.165 100.899 301.892 100.391 303.953 100.261C310.084 99.8748 316.388 99.6706 322.521 99.4189L359.883 97.9591L379.847 97.1788C382.409 97.0779 388.742 96.6876 390.952 97.0787C393.452 97.5346 395.653 99.003 397.037 101.137C399.664 105.266 398.652 115.566 398.534 120.596C398.456 123.856 395.818 126.788 393.107 128.442C389.266 129.86 383.399 129.942 379.404 129.323C374.228 127.569 373.011 124.397 372.623 119.33C355.414 119.749 338.106 120.786 320.926 121.147C320.617 126.042 319.351 128.468 315.136 130.997C311.48 132.242 304.933 132.769 301.391 131.718Z" fill="#C2C4C8"/>
<rect x="426.238" y="314.462" width="10.8463" height="65.736" rx="5.42317" fill="#2CB1F6" fill-opacity="0.5"/>
<rect x="348.715" y="257.026" width="13.3101" height="154.02" rx="6.65505" fill="#71D1FC" fill-opacity="0.5"/>
<rect x="318.324" y="257.026" width="13.3101" height="154.02" rx="6.65505" fill="#71D1FC" fill-opacity="0.5"/>
<rect x="287.926" y="257.026" width="13.3101" height="154.02" rx="6.65505" fill="#71D1FC" fill-opacity="0.5"/>
<rect x="257.535" y="257.026" width="13.3101" height="154.02" rx="6.65505" fill="#71D1FC" fill-opacity="0.5"/>
<g clip-path="url(#clip1_18956_74690)">
<rect x="244.102" y="249.074" width="87.9683" height="41.9533" rx="11.0404" transform="rotate(-11.125 244.102 249.074)" fill="white"/>
<path d="M264.8 273.953C261.615 274.579 258.569 272.59 257.934 269.362C257.299 266.134 259.365 263.139 262.55 262.513C265.735 261.887 268.782 263.876 269.417 267.104C270.051 270.332 267.985 273.326 264.8 273.953ZM264.178 270.789C265.586 270.513 266.469 269.281 266.167 267.743C265.864 266.205 264.581 265.399 263.172 265.676C261.764 265.953 260.881 267.185 261.184 268.723C261.486 270.261 262.77 271.066 264.178 270.789ZM281.773 257.248C280.538 257.378 279.809 257.904 280.056 259.161L280.099 259.377L282.113 258.981L282.727 262.101L280.712 262.497L282.229 270.21L278.979 270.849L277.462 263.136L274.646 263.69L276.162 271.403L272.912 272.042L271.396 264.329L269.944 264.615L269.331 261.495L270.782 261.209C270.186 258.176 271.496 256.028 275.135 255.538L275.749 258.657C274.514 258.788 273.785 259.314 274.032 260.57L276.849 260.016L276.806 259.8C276.21 256.767 277.52 254.619 281.159 254.128L281.773 257.248ZM295.869 256.276L299.335 255.595L297.999 267.109L294.966 267.706L292.095 262.262L291.499 268.387L288.466 268.984L282.869 258.833L286.336 258.151L289.037 263.651L289.586 257.512L292.619 256.915L295.451 262.389L295.869 256.276ZM308.283 253.835L311.533 253.196L313.663 264.029L310.413 264.668L310.213 263.65C309.66 264.613 308.696 265.321 307.245 265.606C304.407 266.164 301.577 264.133 300.942 260.905C300.307 257.676 302.157 254.725 304.995 254.166C306.447 253.881 307.607 254.171 308.483 254.853L308.283 253.835ZM307.29 262.402C308.785 262.108 309.668 260.876 309.348 259.251C309.029 257.627 307.745 256.821 306.25 257.115C304.755 257.409 303.872 258.64 304.192 260.265C304.511 261.89 305.795 262.696 307.29 262.402ZM320.959 251.342L324.425 250.661L322.787 261.897C322.251 265.581 320.591 267.325 317.528 267.77L316.931 264.736C318.448 264.438 319.069 263.821 319.286 262.406L312.942 252.919L316.517 252.216L320.226 258.373L320.959 251.342Z" fill="#18D2FE"/>
</g>
<g clip-path="url(#clip2_18956_74690)">
<rect x="339.801" y="291.447" width="45.3844" height="45.3797" rx="22.6899" transform="rotate(24.9612 339.801 291.447)" fill="#18D2FE"/>
<path fill-rule="evenodd" clip-rule="evenodd" d="M347.438 333.897C348.637 333.623 350.276 333.184 352.027 332.523C355.456 331.228 359.625 328.966 361.477 325.137C364.152 319.608 361.837 312.958 356.308 310.284C350.779 307.609 344.129 309.924 341.455 315.453C339.603 319.282 340.418 323.954 341.532 327.447C342.101 329.23 342.774 330.787 343.303 331.898C343.595 332.509 343.898 333.117 344.237 333.703C344.477 334.118 344.965 334.356 345.44 334.287C346.111 334.189 346.777 334.048 347.438 333.897ZM354.744 321.88C353.868 323.69 351.691 324.448 349.881 323.573C348.071 322.697 347.313 320.52 348.189 318.71C349.064 316.9 351.241 316.142 353.051 317.018C354.862 317.893 355.619 320.07 354.744 321.88Z" fill="white"/>
</g>
<path opacity="0.87" d="M129.415 138.64C127.737 138.63 126.087 138.633 124.437 138.255C113.7 135.8 105.952 126.206 106.16 115.137C106.212 112.409 107.227 109.337 107.977 106.615C108.656 104.152 111.542 100.972 113.242 99.041C116.756 95.8019 123.299 92.4516 128.244 92.6917C129.542 92.7548 133.089 92.9491 134.076 92.3629C134.778 91.5933 135.77 86.396 136.357 85.0374C139.094 78.7009 144.189 72.1344 150.149 68.5254C155.457 65.6469 160.602 63.7306 166.631 63.4003C175.794 62.8984 184.839 65.2309 191.611 71.6404C196.212 75.9948 200.057 80.5528 202.389 86.504C202.775 87.4903 203.818 91.2091 204.517 92.2414C207.565 93.1153 210.864 92.2747 214.079 92.9475C223.885 95.0001 231.595 103.379 232.055 113.506C232.359 120.18 231.503 125.562 226.814 130.625C222.182 135.649 215.709 138.575 208.878 138.733C208.601 138.744 208.324 138.746 208.047 138.74C202.863 139.028 195.799 138.757 190.501 138.771C182.873 138.791 174.755 138.95 167.165 138.742C166.615 138.315 133.202 138.501 129.604 138.44L129.415 138.64Z" fill="#C8EDFF"/>
<path d="M494.126 53.0945C494.63 52.575 495.752 51.5989 496.577 51.7479C498.914 52.17 505.146 53.2292 506.801 54.6697C507.662 55.4189 509.638 59.1661 510.265 60.2478L518.951 75.2375C519.416 76.0351 522.214 81.1813 522.741 81.46C524.376 82.3245 527.175 83.4462 528.978 84.227C533.816 86.2936 538.635 88.4031 543.435 90.5552C545.164 91.3151 547.617 92.219 549.232 93.0042L563.271 84.1032C564.875 83.0853 567.668 81.0336 569.285 80.388C570.385 79.9485 571.581 79.8054 572.741 80.0818C574.021 80.3869 575.191 81.0642 576.378 81.6095C577.065 81.9252 577.806 82.1819 578.454 82.5725C578.809 82.7866 579.129 83.0378 579.356 83.3899C579.64 83.832 579.644 84.5123 579.521 85.0087C579.194 86.3345 570.459 97.8181 568.91 99.9225C567.928 101.258 567.007 102.725 565.941 103.986C566.097 104.463 566.396 105.09 566.505 105.521C566.916 107.142 566.771 108.771 566.356 110.359C568.848 111.875 571.691 115.874 573.453 118.275C573.841 118.804 573.918 119.183 573.891 119.831C573.207 122.297 572.826 122.685 570.157 122.397C568.117 122.176 565.891 122.28 564.084 121.147C563.168 120.572 560.498 117.274 559.78 117.112C559.227 117.484 558.117 117.884 557.449 118.06C550.552 119.89 542.422 118.37 535.468 117.379C533.692 117.126 531.788 116.627 530.11 116.415C530.611 117.943 532.323 121.605 533.019 123.225C535.083 128.019 537.117 132.827 539.122 137.646C539.908 139.546 540.888 141.631 541.502 143.587C541.65 144.057 541.458 145.117 541.27 145.576C540.708 147.021 539.474 149.523 537.576 149.332C535.139 149.086 532.561 148.232 530.141 147.683C528.084 147.215 525.726 146.714 523.78 145.899C521.672 144.92 520.368 142.267 519.165 140.39L514.145 132.571C513.607 131.737 511.836 128.798 511.256 128.271C510.455 129.442 509.285 130.872 507.82 131.193C505.765 131.643 497.036 128.726 494.631 127.87C493.622 127.466 492.419 127.029 491.803 126.089C490.75 124.48 490.779 122.1 491.163 120.285C491.706 117.718 493.036 114.733 495.288 113.223C496.708 112.271 497.728 112.542 499.258 112.856C500.009 113.032 500.668 113.18 501.402 113.428L501.457 113.34C501.272 112.803 498.197 108.157 497.707 107.666C493.469 106.41 488.015 104.428 483.825 102.916C478.346 100.971 472.935 98.8395 467.601 96.5252C460.737 93.5378 451.308 89.3734 447.221 82.6605C445.658 80.0945 445.525 77.4687 446.302 74.5994C448.808 68.4077 453.899 66.9791 460.022 66.2805C462.19 64.9973 463.726 64.4047 466.155 63.7496C475.034 62.0792 480.978 63.7193 489.154 67.3053C490.781 68.0185 493.668 69.3171 495.305 69.7695C494.909 67.1855 494.27 64.4578 493.794 61.8749C493.044 57.8017 492.236 56.864 494.126 53.0945Z" fill="#D3F0FF"/>
<path d="M496.845 100.569C497.119 101.285 498.614 103.296 499.112 104.03L503.486 110.606L515.87 129.505C518.388 133.379 520.859 137.36 523.477 141.148C524.039 141.815 525.489 142.789 526.332 143.044C528.66 143.746 530.889 144.373 533.312 144.856C535.532 145.298 538.796 146.859 540.86 145.595C541.056 145.475 540.956 145.491 541.211 145.406L541.267 145.576C540.705 147.021 539.471 149.523 537.573 149.332C535.136 149.085 532.559 148.232 530.139 147.683C528.081 147.215 525.723 146.713 523.777 145.899C521.669 144.92 520.365 142.267 519.163 140.39L514.142 132.571C513.604 131.737 511.833 128.797 511.253 128.271C511.181 127.929 509.038 124.743 508.717 124.251L504.14 117.271C503.657 116.541 501.916 113.739 501.399 113.428L501.454 113.34C501.269 112.803 498.194 108.157 497.704 107.665C497.243 106.709 496.621 106.157 496.228 105.05C495.825 103.917 496.094 101.928 496.607 100.879L496.845 100.569Z" fill="#71D1FC"/>
<path d="M549.229 93.0037L563.268 84.1026C564.872 83.0847 567.665 81.0331 569.282 80.3875C570.382 79.948 571.578 79.8049 572.738 80.0813C574.018 80.3863 575.188 81.0637 576.375 81.609C577.062 81.9246 577.803 82.1814 578.451 82.572C578.806 82.7861 579.126 83.0373 579.353 83.3893C579.637 83.8314 579.641 84.5118 579.518 85.0081C579.192 86.334 570.456 97.8175 568.907 99.922C567.925 101.258 567.004 102.724 565.938 103.985C563.107 98.7247 557.613 96.75 552.464 94.4532C551.551 94.0459 550.141 93.5037 549.312 93.05L549.229 93.0037Z" fill="#71D1FC"/>
<path d="M446.301 74.5991C446.503 74.7555 447.646 76.8176 447.981 77.2908C448.923 78.6206 450.041 79.6415 451.274 80.7083C456.817 85.2077 464.082 88.4831 470.631 91.2579C479.163 94.799 487.828 98.0084 496.608 100.879C496.095 101.928 495.826 103.917 496.229 105.05C496.622 106.157 497.244 106.709 497.705 107.665C493.468 106.41 488.013 104.428 483.824 102.916C478.344 100.971 472.933 98.8392 467.599 96.5249C460.735 93.5376 451.306 89.3731 447.219 82.6603C445.657 80.0942 445.523 77.4684 446.301 74.5991Z" fill="#71D1FC"/>
<path d="M554.468 108.05C555.585 107.389 558.676 108.327 559.988 108.65C562.052 109.158 564.361 109.654 566.352 110.359C568.844 111.874 571.687 115.874 573.449 118.275C573.837 118.804 573.914 119.183 573.887 119.831C573.203 122.297 572.822 122.685 570.153 122.397C568.113 122.176 565.887 122.28 564.08 121.147C563.164 120.571 560.494 117.273 559.776 117.112C559.843 117.148 557.755 114.823 557.646 114.695C556.805 113.875 554.245 111.449 553.731 110.59C553.755 109.471 553.965 109.009 554.468 108.05Z" fill="#D3F0FF"/>
<path d="M554.468 108.05C555.424 109.285 558.269 111.886 559.515 113.12C561.334 114.921 563.54 117.288 565.552 118.843C566.359 119.426 567.303 119.62 568.268 119.721C569.832 119.886 571.385 120.088 572.954 120.118C573.22 120.124 573.695 119.829 573.887 119.831C573.203 122.297 572.822 122.685 570.153 122.397C568.113 122.176 565.887 122.28 564.08 121.147C563.165 120.571 560.495 117.273 559.776 117.112C559.843 117.148 557.755 114.823 557.646 114.694C556.806 113.875 554.246 111.449 553.731 110.59C553.755 109.471 553.965 109.009 554.468 108.05Z" fill="#71D1FC"/>
<path d="M557.646 114.694C557.755 114.823 559.843 117.148 559.776 117.112C559.223 117.484 558.112 117.884 557.445 118.06C550.548 119.889 542.418 118.37 535.464 117.379C533.688 117.125 531.784 116.627 530.105 116.415C529.907 116.107 529.566 115.243 529.388 114.879C528.503 113.057 527.874 110.868 526.492 109.374C527.072 109.546 527.442 109.654 528.036 109.759C536.209 111.812 545.131 113.369 553.5 114.382C554.335 114.483 556.954 114.785 557.646 114.694Z" fill="#71D1FC"/>
<path d="M466.151 63.7491C466.875 67.2215 470.329 69.5915 473.036 71.5715C473.637 72.0114 474.515 72.495 474.913 73.1261C475.191 73.5669 475.075 74.1374 474.805 74.5499C474.523 74.9802 474.146 75.3528 473.833 75.7605C473.292 76.4646 472.432 77.938 471.47 78.0815C470.384 78.2436 465.234 74.4136 464.165 73.5265C462.47 72.1211 460.096 69.9815 459.862 67.6337C459.815 67.162 459.872 66.7281 460.018 66.28C462.187 64.9968 463.722 64.4042 466.151 63.7491Z" fill="#18D2FE"/>
<path d="M494.121 53.0938C495.444 58.4179 496.998 63.7097 498.331 69.0341C498.523 69.7981 498.727 70.6152 498.952 71.367C498.337 71.1198 495.691 70.1325 495.3 69.7689C494.903 67.1848 494.265 64.4571 493.789 61.8742C493.038 57.801 492.231 56.8633 494.121 53.0938Z" fill="#71D1FC"/>
<path d="M486.336 79.1642C487.93 79.4388 489.006 80.944 488.751 82.5407C488.496 84.1374 487.003 85.2316 485.403 84.9954C484.351 84.84 483.464 84.131 483.08 83.1391C482.696 82.1472 482.876 81.0257 483.55 80.2031C484.223 79.3804 485.288 78.9835 486.336 79.1642Z" fill="#18D2FE"/>
<path d="M497.17 83.7058C498.797 83.9202 499.935 85.42 499.705 87.0436C499.474 88.6673 497.963 89.7908 496.342 89.5439C494.743 89.3006 493.638 87.8153 493.865 86.2144C494.093 84.6136 495.567 83.4944 497.17 83.7058Z" fill="#18D2FE"/>
<path d="M519.889 92.7736C521.474 93.146 522.455 94.7322 522.082 96.3157C521.709 97.8993 520.121 98.8797 518.538 98.505C516.956 98.1304 515.977 96.5456 516.35 94.9638C516.723 93.3823 518.307 92.4018 519.889 92.7736Z" fill="#18D2FE"/>
<path d="M508.619 88.4952C510.193 88.8619 511.176 90.4289 510.822 92.0051C510.467 93.581 508.908 94.576 507.328 94.2334C505.732 93.8871 504.724 92.3068 505.082 90.7136C505.441 89.1204 507.029 88.1244 508.619 88.4952Z" fill="#18D2FE"/>
<path d="M530.836 96.8486C532.417 97.1319 533.476 98.6324 533.214 100.216C532.953 101.8 531.467 102.88 529.879 102.64C528.833 102.481 527.953 101.771 527.576 100.783C527.199 99.7944 527.383 98.6795 528.059 97.865C528.733 97.0502 529.795 96.6622 530.836 96.8486Z" fill="#18D2FE"/>
<path d="M511.967 129.161L500.649 112.031C499.963 110.992 498.484 110.87 497.636 111.783C497.46 111.972 497.248 112.124 497.012 112.23L494.991 113.132C492.381 114.298 490.237 116.306 488.903 118.835L485.887 124.551C485.088 126.066 484.783 127.794 485.016 129.491C485.391 132.23 487.122 134.596 489.619 135.782L493.004 137.391C494.795 138.242 496.736 138.733 498.717 138.836L506.214 139.224C508.852 139.361 511.31 137.886 512.431 135.493C513.389 133.445 513.214 131.047 511.967 129.161Z" fill="#3DC2FF"/>
<path opacity="0.75" d="M47.2445 334.242C46.256 334.237 45.284 334.238 44.3122 334.016C37.9868 332.569 33.4228 326.918 33.5454 320.397C33.5756 318.79 34.1736 316.98 34.6156 315.377C35.0155 313.926 36.7158 312.053 37.717 310.915C39.7871 309.007 43.6418 307.033 46.5546 307.175C47.3195 307.212 49.409 307.326 49.99 306.981C50.4036 306.527 50.9885 303.466 51.3342 302.665C52.9463 298.933 55.9477 295.064 59.4588 292.938C62.5855 291.243 65.6167 290.114 69.1682 289.919C74.5661 289.623 79.8943 290.998 83.8839 294.773C86.5942 297.338 88.8595 300.024 90.2331 303.529C90.4606 304.11 91.0749 306.301 91.4868 306.909C93.2825 307.424 95.2257 306.929 97.1195 307.325C102.897 308.534 107.438 313.47 107.709 319.436C107.888 323.368 107.384 326.538 104.622 329.521C101.893 332.48 98.0797 334.204 94.056 334.297C93.8928 334.304 93.7296 334.305 93.5665 334.301C90.5124 334.471 86.3509 334.311 83.2299 334.319C78.7364 334.331 73.9539 334.425 69.4828 334.303C69.1587 334.051 49.4753 334.161 47.3556 334.124L47.2445 334.242Z" fill="#C8EDFF"/>
</g>
<defs>
<clipPath id="clip0_18956_74690">
<rect width="611" height="392" fill="white"/>
</clipPath>
<clipPath id="clip1_18956_74690">
<rect x="244.102" y="249.074" width="87.9683" height="41.9533" rx="11.0404" transform="rotate(-11.125 244.102 249.074)" fill="white"/>
</clipPath>
<clipPath id="clip2_18956_74690">
<rect x="339.801" y="291.447" width="45.3844" height="45.3797" rx="22.6899" transform="rotate(24.9612 339.801 291.447)" fill="white"/>
</clipPath>
</defs>
</svg>
