<svg preserveAspectRatio="none" width="100%" height="100%" overflow="visible" style="display: block;" viewBox="0 0 19.9959 19.9959" fill="none" xmlns="http://www.w3.org/2000/svg">
<g id="Icon" clip-path="url(#clip0_0_10)">
<path id="Vector" d="M15.3291 18.727C14.2953 19.7292 13.1665 19.6553 12.08 19.149C10.9301 18.6215 9.88574 18.6426 8.66204 19.149C7.14296 19.803 6.34122 19.6131 5.43399 18.727C0.286 13.4208 1.04554 5.34011 6.88978 5.04474C8.31391 5.11858 9.30554 5.82537 10.1389 5.88867C11.3837 5.63549 12.5758 4.9076 13.905 5.00254C15.4979 5.12913 16.7005 5.76208 17.4917 6.90139C14.2003 8.87408 14.981 13.2098 17.998 14.4229C17.3967 16.0053 16.6161 17.5771 15.3186 18.7376L15.3291 18.727ZM10.0334 4.98144C9.87519 2.62898 11.7846 0.687932 13.9788 0.498047C14.2847 3.21973 11.5103 5.24517 10.0334 4.98144Z" fill="white"/>
</g>
<defs>
<clipPath id="clip0_0_10">
<rect width="19.9959" height="19.9959" fill="white"/>
</clipPath>
</defs>
</svg>
