<svg preserveAspectRatio="none" width="100%" height="100%" overflow="visible" style="display: block;" viewBox="0 0 19.9959 19.9959" fill="none" xmlns="http://www.w3.org/2000/svg">
<g id="Icon" clip-path="url(#clip0_0_5)">
<path id="Vector" d="M18.7982 10.2066C18.7982 9.55678 18.7399 8.93191 18.6316 8.33203H10V11.8813H14.9323C14.7157 13.0227 14.0658 13.9892 13.091 14.6391V16.9469H16.0654C17.7984 15.3473 18.7982 12.9977 18.7982 10.2066Z" fill="#4285F4"/>
<path id="Vector_2" d="M9.99417 19.1632C12.4687 19.1632 14.5432 18.3467 16.0596 16.947L13.0852 14.6391C12.2687 15.189 11.2273 15.5223 9.99417 15.5223C7.61132 15.5223 5.58673 13.9143 4.86188 11.748H1.8125V14.1142C3.32053 17.1053 6.41156 19.1632 9.99417 19.1632Z" fill="#34A853"/>
<path id="Vector_3" d="M4.86845 11.7394C4.68515 11.1895 4.57684 10.6063 4.57684 9.99812C4.57684 9.38991 4.68515 8.8067 4.86845 8.25681V5.89062H1.81907C1.1942 7.12371 0.835938 8.51509 0.835938 9.99812C0.835938 11.4812 1.1942 12.8725 1.81907 14.1056L4.19359 12.256L4.86845 11.7394Z" fill="#FBBC05"/>
<path id="Vector_4" d="M9.99417 4.48324C11.3439 4.48324 12.5436 4.94981 13.5018 5.84963L16.1263 3.22516C14.5349 1.74213 12.4687 0.833984 9.99417 0.833984C6.41156 0.833984 3.32053 2.8919 1.8125 5.89129L4.86188 8.25747C5.58673 6.09125 7.61132 4.48324 9.99417 4.48324Z" fill="#EA4335"/>
</g>
<defs>
<clipPath id="clip0_0_5">
<rect width="19.9959" height="19.9959" fill="white"/>
</clipPath>
</defs>
</svg>
