<svg preserveAspectRatio="none" overflow="visible" style="display: block;" width="24" height="24" viewBox="0 0 24 24" fill="none" xmlns="http://www.w3.org/2000/svg">
<g id="calendar-edit">
<g id="Vector" opacity="0">
</g>
<g id="Group">
<path id="Vector_2" d="M16.75 3.56V2C16.75 1.59 16.41 1.25 16 1.25C15.59 1.25 15.25 1.59 15.25 2V3.5H8.75001V2C8.75001 1.59 8.41001 1.25 8.00001 1.25C7.59001 1.25 7.25001 1.59 7.25001 2V3.56C4.55001 3.81 3.24002 5.42 3.04002 7.81C3.02002 8.1 3.26002 8.34 3.54002 8.34H20.46C20.75 8.34 20.99 8.09 20.96 7.81C20.76 5.42 19.45 3.81 16.75 3.56Z" fill="#3DC2FF"/>
<path id="Vector_3" opacity="0.4" d="M20 9.84C20.55 9.84 21 10.29 21 10.84V17C21 20 19.5 22 16 22H8C4.5 22 3 20 3 17V10.84C3 10.29 3.45 9.84 4 9.84H20Z" fill="#3DC2FF"/>
</g>
<g id="Group_2">
<path id="Vector_4" d="M14.84 14.99L14.34 15.5H14.33L11.3 18.53C11.17 18.66 10.9 18.8 10.71 18.82L9.35999 19.02C8.86999 19.09 8.53001 18.74 8.60001 18.26L8.79002 16.9C8.82002 16.71 8.94999 16.45 9.07999 16.31L12.12 13.28L12.62 12.77C12.95 12.44 13.32 12.2 13.72 12.2C14.06 12.2 14.43 12.36 14.84 12.77C15.74 13.67 15.45 14.38 14.84 14.99Z" fill="#3DC2FF"/>
</g>
</g>
</svg>
