<svg preserveAspectRatio="none" overflow="visible" style="display: block;" width="29.04" height="29.04" viewBox="0 0 29.04 29.04" fill="none" xmlns="http://www.w3.org/2000/svg">
<g id="book-saved">
<g id="Vector" opacity="0">
</g>
<path id="Vector_2" opacity="0.4" d="M14.5199 6.41314V25.8095C14.7256 25.8095 14.9434 25.7731 15.1128 25.6763L15.1612 25.6522C17.4844 24.3817 21.5379 23.0507 24.1636 22.6998L24.5145 22.6513C25.6761 22.5061 26.6199 21.4171 26.6199 20.2555V5.63872C26.6199 4.19882 25.4462 3.10984 24.0063 3.23084C21.4653 3.43654 17.6175 4.71917 15.4637 6.06227L15.1612 6.24372C14.9797 6.35262 14.7498 6.41314 14.5199 6.41314Z" fill="#00AEFF"/>
<path id="Vector_3" d="M2.41989 5.65063V20.2553C2.41989 21.4169 3.36368 22.5059 4.52528 22.6511L4.9246 22.6996C7.5624 23.0505 11.628 24.3935 13.9512 25.6761C14.1085 25.7729 14.3021 25.8093 14.5199 25.8093V6.41294C14.29 6.41294 14.0601 6.35242 13.8786 6.24352L13.6729 6.11044C11.5191 4.75524 7.65917 3.46054 5.11817 3.24274H5.04557C3.60567 3.12174 2.41989 4.19863 2.41989 5.65063Z" fill="#00AEFF"/>
<path id="Vector_4" d="M22.9899 3.36398V8.55486C22.9899 9.03886 22.4575 9.32924 22.0461 9.06304L20.5699 8.08294L19.0938 9.06304C18.6945 9.32924 18.1499 9.03886 18.1499 8.55486V4.74333C19.735 4.11413 21.5016 3.60598 22.9899 3.36398Z" fill="#00AEFF"/>
</g>
</svg>
