<svg preserveAspectRatio="none" overflow="visible" style="display: block;" width="49.1921" height="49.1921" viewBox="0 0 49.1921 49.1921" fill="none" xmlns="http://www.w3.org/2000/svg">
<g id="Shape">
<g id="Normal">
<path d="M15.5776 14.8661C15.5776 9.88527 19.6154 5.84752 24.5962 5.84752C29.5769 5.84752 33.6147 9.88527 33.6147 14.8661C33.6147 19.8469 29.5769 23.8846 24.5962 23.8846C19.6154 23.8846 15.5776 19.8469 15.5776 14.8661Z" fill="#A1E1FF"/>
<path d="M24.596 27.8735C19.8573 27.8735 15.4353 28.8011 12.1265 30.5834C8.82014 32.3644 6.35397 35.183 6.35397 38.9417L6.35397 39.6134C6.3539 39.996 6.35384 40.3855 6.38105 40.7184C6.41131 41.0889 6.48423 41.5485 6.72261 42.0163C7.04687 42.6527 7.56428 43.1701 8.20067 43.4943C8.66852 43.7327 9.12815 43.8055 9.49859 43.8358C9.83154 43.863 10.221 43.8629 10.6036 43.8628L38.5888 43.8612C38.9714 43.8612 39.3609 43.8612 39.6938 43.834C40.0642 43.8037 40.5238 43.7308 40.9916 43.4924C41.6279 43.1682 42.1452 42.6508 42.4694 42.0145C42.7078 41.5467 42.7807 41.0871 42.8109 40.7167C42.8381 40.3837 42.8381 39.9943 42.838 39.6117L42.838 38.9417C42.838 35.183 40.3718 32.3644 37.0655 30.5834C33.7567 28.8011 29.3347 27.8735 24.596 27.8735Z" fill="#A1E1FF"/>
</g>
</g>
</svg>
