<svg preserveAspectRatio="none" overflow="visible" style="display: block;" width="9" height="9" viewBox="0 0 9 9" fill="none" xmlns="http://www.w3.org/2000/svg">
<g id="StarFour" clip-path="url(#clip0_0_2368)">
<path id="Vector" d="M8.43805 4.50006C8.43894 4.61542 8.40387 4.72819 8.33772 4.8227C8.27156 4.91721 8.1776 4.98876 8.06891 5.0274L5.83859 5.83846L5.02789 8.06842C4.98793 8.17607 4.91599 8.26891 4.82172 8.33447C4.72745 8.40004 4.61537 8.43518 4.50055 8.43518C4.38572 8.43518 4.27365 8.40004 4.17938 8.33447C4.08511 8.26891 4.01316 8.17607 3.9732 8.06842L3.1625 5.83811L0.932188 5.0274C0.824538 4.98744 0.731696 4.9155 0.666134 4.82123C0.600571 4.72696 0.56543 4.61489 0.56543 4.50006C0.56543 4.38523 0.600571 4.27316 0.666134 4.17889C0.731696 4.08462 0.824538 4.01267 0.932188 3.97272L3.1625 3.16201L3.9732 0.9317C4.01316 0.82405 4.08511 0.731208 4.17938 0.665645C4.27365 0.600083 4.38572 0.564941 4.50055 0.564941C4.61537 0.564941 4.72745 0.600083 4.82172 0.665645C4.91599 0.731208 4.98793 0.82405 5.02789 0.9317L5.83895 3.16201L8.06891 3.97272C8.1776 4.01136 8.27156 4.08291 8.33772 4.17742C8.40387 4.27193 8.43894 4.3847 8.43805 4.50006Z" fill="#3DC2FF"/>
</g>
<defs>
<clipPath id="clip0_0_2368">
<rect width="9" height="9" fill="white"/>
</clipPath>
</defs>
</svg>
