<svg preserveAspectRatio="none" width="100%" height="100%" overflow="visible" style="display: block;" viewBox="0 0 18.3323 18.3319" fill="none" xmlns="http://www.w3.org/2000/svg">
<path id="Subtract" d="M8.63684 0.0682005C8.98397 -0.0227032 9.3493 -0.0227638 9.69641 0.0682005C10.1225 0.179904 10.4465 0.438036 10.5499 0.517419L10.5509 0.516443L10.5822 0.53988L10.5812 0.540857L16.6408 5.08383L16.8917 5.27328C17.151 5.47314 17.4261 5.70621 17.6495 5.99886C17.9006 6.32778 18.0888 6.70043 18.2033 7.0975C18.3391 7.56925 18.3325 8.04877 18.3322 8.44515V13.9705C18.3322 14.4195 18.3332 14.8507 18.3029 15.2147C18.2703 15.6058 18.1938 16.0578 17.9591 16.5096C17.6311 17.1409 17.1089 17.6517 16.4708 17.9705C16.0158 18.1978 15.5613 18.2719 15.1661 18.3036C14.7973 18.3331 14.3591 18.3319 13.9005 18.3319H10.0294V10.1981C10.0292 9.72178 9.64244 9.33497 9.16614 9.3348C8.6897 9.3348 8.30303 9.72168 8.30286 10.1981V18.3319H4.43177C3.97333 18.3319 3.53583 18.3331 3.16712 18.3036C2.77181 18.2719 2.31672 18.198 1.86145 17.9705C1.22342 17.6517 0.702148 17.1409 0.374149 16.5096C0.139362 16.0577 0.0629913 15.6059 0.0303992 15.2147C8.24902e-05 14.8507 0.000112742 14.4195 0.000125809 13.9705V8.44515C-0.000256326 8.04874 -0.00590173 7.56929 0.130009 7.0975C0.244412 6.70044 0.431695 6.32778 0.682743 5.99886C0.980446 5.60887 1.36994 5.32453 1.69153 5.08383L7.75013 0.540857L7.78138 0.516443V0.517419C7.88388 0.438821 8.20952 0.180205 8.63684 0.0682005Z" fill="#2D3037"/>
</svg>
