<svg preserveAspectRatio="none" width="100%" height="100%" overflow="visible" style="display: block;" viewBox="0 0 20 17.2521" fill="none" xmlns="http://www.w3.org/2000/svg">
<g id="vector">
<path d="M13 2.09443C13 1.63204 12.683 1.22995 12.2334 1.12204L7.61669 0.0140369C7.30227 -0.0614223 7 0.176889 7 0.50023V15.1576C7 15.62 7.31701 16.0221 7.76663 16.13L12.3833 17.238C12.6977 17.3135 13 17.0752 13 16.7518V2.09443Z" fill="#6F767E"/>
<path d="M15.6952 1.00356C15.281 1.1361 15 1.52112 15 1.95599V16.6211C15 16.9598 15.3298 17.2005 15.6524 17.0973L17.9143 16.3734C19.1569 15.9758 20 14.8208 20 13.5162V2.36594C20 1.01094 18.681 0.0481198 17.3904 0.46109L15.6952 1.00356Z" fill="#6F767E"/>
<path d="M2.08567 0.878619L4.34761 0.154797C4.67024 0.0515542 5 0.29226 5 0.631009V15.2961C5 15.7309 4.71896 16.116 4.30478 16.2485L2.60955 16.791C1.31902 17.2039 0 16.2411 0 14.8861V3.73589C0 2.43128 0.843132 1.27623 2.08567 0.878619Z" fill="#6F767E"/>
</g>
</svg>
